<?xml version="1.0" encoding="utf-8"?>
<!-- Generator: Adobe Illustrator 23.0.1, SVG Export Plug-In . SVG Version: 6.00 Build 0)  -->
<svg version="1.1" id="Calque_1" xmlns="http://www.w3.org/2000/svg" xmlns:xlink="http://www.w3.org/1999/xlink" x="0px" y="0px"
	 viewBox="0 0 80 80" style="enable-background:new 0 0 80 80;" xml:space="preserve">
<style type="text/css">
	.st0{fill:#FFFFFF;}
	.st1{fill-rule:evenodd;clip-rule:evenodd;fill:#254195;}
	.st2{fill-rule:evenodd;clip-rule:evenodd;fill:#F4A932;}
	.st3{fill-rule:evenodd;clip-rule:evenodd;fill:#E22B2E;}
	.st4{display:none;fill-rule:evenodd;clip-rule:evenodd;fill:#E22B2E;}
	.st5{display:none;fill:#E22B2E;enable-background:new    ;}
	.st6{font-family:'Insaniburger-with-Cheese';}
	.st7{font-size:24.7623px;}
	.st8{fill:#E22B2E;}
</style>
<circle class="st0" cx="39" cy="39.7" r="38.8"/>
<path class="st1" d="M67.1,51C62,62.5,52.2,70.5,39.4,70.6c-9.3,0.1-17.5-3.1-23.5-8.7l-3.6,1.5v-5.6c-3.9-5.3-6.1-12.1-6.1-19.6
	c0-19.5,14.9-34.8,35.6-34.8c3.4,0,6.4,0.5,8.7,1.1c-3.5-1.1-7.1-1.8-11-1.8C17.2,2.7,2.3,20.8,2.3,39.5c0,20.4,16,37.5,36.8,37.5
	C59,77,69.8,62.9,73.2,54.4L67.1,51L67.1,51z"/>
<path class="st2" d="M64,48.1c-0.2-0.2-0.6-0.2-1-0.1c-10.1,2.4-27,7.6-36.8,11.9c-0.4,0.2-0.6,0.3-0.8,0.6c-0.2,0.5,0.3,1,0.3,1
	c2,2.6,10.8,5.8,20.4,3.4c14.7-3.6,17.7-14.2,18.1-15.7C64.2,48.9,64.3,48.4,64,48.1 M60.7,52.2c-2.3,5-6.5,8.4-10.8,10.1
	c4.9-2.9,7.7-7,9-10.6C59.4,50.1,61.4,50.9,60.7,52.2 M57.6,12c0,0-2.7-4.7-12.3-5.8c-5.1-0.6-12.1,0.5-17,3.2
	c-8.8,4.9-10.2,12.9-10.2,12.9c-0.1,0.1-0.1,0.7,0.1,1s0.5,0.3,0.9,0.1c3.1-1.1,12.5-4.3,18.4-5.8c8.4-2.3,15.2-3.7,19.6-4.4
	c0.3-0.1,0.6-0.2,0.7-0.5C58,12.4,57.6,12,57.6,12 M22.4,19.9c-0.1,1-1.4,0.9-1.3-0.1c0.2-2.4,3.8-8.2,9.2-10.7
	C27,11.4,23.5,15.6,22.4,19.9 M48.1,13.5c1.2-0.3,2-1.2,2-2.2c0-1.6-3.5-3.9-9.3-4.3c5.7-0.5,11.8,2.1,11.8,4.3
	C52.6,12.6,50.9,12.7,48.1,13.5"/>
<path class="st3" d="M71.3,49.8h0.4c0.2,0,0.4,0,0.4,0.3s-0.2,0.3-0.4,0.3h-0.4V49.8C71.4,49.8,71.3,49.8,71.3,49.8z M70.8,51.5h0.4
	v-0.9h0.3l0.4,0.9h0.4l-0.5-0.9c0.3,0,0.5-0.2,0.5-0.5c0-0.4-0.3-0.6-0.8-0.6h-0.7L70.8,51.5L70.8,51.5z M70.2,50.5
	c0-0.8,0.6-1.4,1.4-1.4s1.4,0.6,1.4,1.4c0,0.8-0.6,1.4-1.4,1.4S70.2,51.3,70.2,50.5z M69.9,50.5c0,1,0.8,1.7,1.7,1.7
	c0.9,0,1.7-0.7,1.7-1.7s-0.8-1.7-1.7-1.7C70.7,48.9,69.9,49.6,69.9,50.5z"/>
<path class="st1" d="M67.1,51C62,62.5,52.2,70.5,39.4,70.6c-9.3,0.1-17.5-3.1-23.5-8.7l-3.6,1.5v-5.6c-3.9-5.3-6.1-12.1-6.1-19.6
	c0-19.5,14.9-34.8,35.6-34.8c3.4,0,6.4,0.5,8.7,1.1c-3.5-1.1-7.1-1.8-11-1.8C17.2,2.7,2.3,20.8,2.3,39.5c0,20.4,16,37.5,36.8,37.5
	C59,77,69.8,62.9,73.2,54.4L67.1,51L67.1,51z"/>
<path class="st4" d="M48.5,26.8c0,0.7-0.3,1.6-0.9,2.1C47,29.4,46,30,44.3,30.3c-3.3,0.6-5.9-1.2-5.9-5.3c0-3.9,2.4-7.3,7-7.5
	c2.2-0.1,3.2,0.6,3.1,1.8c0,1.1-0.8,1.7-2.1,1.5c-0.5-0.1-1.2-0.2-1.9,0c-1.5,0.4-2.6,1.7-2.6,4c0,1.8,0.7,2.7,1.9,2.7
	c0.9,0,1.7-0.3,1.7-0.9v-1.4c0,0-0.3,0.1-0.7,0.2c-0.7,0.1-1.1-0.3-1.1-0.9v-1.4l4.9-1.1C48.6,22.1,48.5,26.8,48.5,26.8z M57.3,27.2
	V15.4c0,0,3.5-0.6,4.3-0.7c2.5-0.3,4.1,1.1,4.1,3c0,1.7-1.1,2.8-2,3.3c0,0,1.7,1.9,2.2,2.4c0.6,0.7,0.6,1.9-0.3,2.4
	c-0.9,0.6-1.8,0.3-2.3-0.3l-2.9-3.3V25c0,0.9-0.5,1.5-1.4,1.7L57.3,27.2L57.3,27.2z M60.5,20.4c0,0,2-0.7,1.9-2.3
	c0-1.3-1.3-1.1-1.9-0.9V20.4z M32.5,28.8V32c0,0.9-0.6,1.5-1.4,1.8c-0.6,0.2-2,0.7-2,0.7V22.2c0,0,2.8-1,4.4-1.4
	c2.6-0.6,4.3,0.6,4.2,2.6c0,2-1.1,3.1-2.1,3.9l2.2,2.1c0.7,0.6,0.7,1.8,0,2.5c-0.4,0.4-1.6,0.9-2.6-0.1L32.5,28.8L32.5,28.8z
	 M32.5,27c0,0,2-1,2-2.6c0-1.4-1.3-1.1-2-0.8V27L32.5,27z M49.3,28.8v-12c2.4-0.5,4.7-1,7.1-1.5v1.4c0,0.7-0.3,1.3-1,1.4
	c-1,0.2-2.8,0.6-2.8,0.6v1.9l3.5-0.8v1.4c0,0.8-0.4,1.2-1,1.3L52.6,23v2.4l3.9-0.9v1.4c0,0.9-0.5,1.4-1.2,1.6
	C53.2,27.9,49.3,28.8,49.3,28.8z M28.3,31c0,3.6-1.7,5-4.2,5.8c-2.9,0.9-4.7-0.5-4.7-3.2v-8.1c0,0,0.6-0.3,1.7-0.6
	c0.9-0.3,1.7,0,1.7,1.2v6.7c0,0.8,0.4,1.3,1.2,1.2c1-0.3,1.1-1.3,1.2-2.1v-8.2c0,0,0.9-0.3,1.6-0.6c0.9-0.3,1.7,0,1.7,1.2V31H28.3z
	 M19.1,35.2c0,2.6-1.8,3.8-4.1,4.8l-4.8,2.1V28.9c0,0,3.1-1.3,4-1.6c2.9-1,4.5,0.2,4.5,2.1c0,1.3-0.5,2.4-1.7,3.2
	C18,33,19,33.8,19.1,35.2z M13.4,32.8l0.6-0.3c0.7-0.4,1.3-1,1.3-1.9c0-1-0.8-1.2-1.9-0.7L13.4,32.8L13.4,32.8z M15.6,35.6
	c0-1-0.8-1.6-2.2-0.9V38c0,0,0.4-0.2,0.8-0.3C15,37.3,15.6,36.6,15.6,35.6L15.6,35.6z M26.4,38.1c-1.5-0.7-2.9,0.1-3.4,0.9l-4.6,8
	v-6.4l-5.5,2.3V61l3.8-1.7c0,0,0.8-0.2,1.2-1c0.4-0.7,0.4-1.8,0.4-1.8v-5.7l4.3,4.6c1,1,2.7,1.5,4.2,0.3c1.4-1.1,1.2-3,0.4-3.9
	l-3.9-3.9c0,0,3.5-5.5,4-6.4C28.2,40.2,27.8,38.7,26.4,38.1L26.4,38.1z M34.7,34.5c0,0-1.7,0.5-3,1C30,36.1,29,37.2,29,39.8v15
	c0,0,1.6-0.5,3-1.1c2.1-0.8,2.8-1.8,2.8-3.9L34.7,34.5L34.7,34.5z M36.4,52.2c0,0,2.4-0.8,2.6-0.9c1.9-0.7,2.6-1.8,2.6-3.7v-6.3
	l5.5,6.3c0.9,0.9,2,1,3.1,0.7s2-1.3,2-2.7V29.9c0,0-1.4,0.3-2.6,0.6c-1.4,0.4-2.4,1.3-2.4,3.5v5.4c0,0-3.1-3.8-5.1-5.9
	c-1.1-1.1-2.9-0.4-2.9-0.4l-2.7,0.8L36.4,52.2L36.4,52.2z M61.4,45.6c3-0.3,4.9-1.5,6-2.6c1-1,1.3-2.4,1.3-3.3v-6.2L61,35.2V37
	c0,1.2,0.6,1.9,1.9,1.6c0.4-0.1,1-0.3,1-0.3v1.5c0,0,0.1,0.8-1.9,1.2c-2.6,0.4-3.7-1.2-3.7-3.9c0.1-2.9,1.8-4.6,3.8-5.1
	c2.3-0.5,3.6,0,4.3,0.1c2.6,0.4,3.3-3.4,1-4.3c-1.7-0.7-3.9-0.8-6.1-0.4c-2.9,0.6-8.4,2.9-8.4,10.6C52.8,44.1,57.4,46.1,61.4,45.6
	L61.4,45.6z"/>
<path class="st3" d="M27.2,41c-1.5-0.6-2.9,0.1-3.4,0.8L19.2,49v-5.7l-5.5,2.1v16.3l3.8-1.5c0,0,0.8-0.2,1.2-0.9
	c0.4-0.6,0.4-1.6,0.4-1.6v-5.3l4.3,4.1c1,0.9,2.7,1.3,4.2,0.3c1.4-1,1.2-2.7,0.4-3.5l-3.9-3.5c0,0,3.5-4.9,4-5.7
	C29,42.9,28.6,41.6,27.2,41L27.2,41z M35.5,37.8c0,0-1.7,0.4-3,0.9c-1.7,0.5-2.7,1.5-2.7,3.9v13.5c0,0,1.6-0.4,3-1
	c2.1-0.7,2.8-1.6,2.8-3.5L35.5,37.8L35.5,37.8z M37.2,53.7c0,0,2.4-0.7,2.6-0.8c1.9-0.6,2.6-1.6,2.6-3.3v-5.7l5.5,5.7
	c0.9,0.8,2,0.9,3.1,0.6s2-1.2,2-2.4V33.7c0,0-1.4,0.3-2.6,0.5C49,34.6,48,35.4,48,37.3v4.8c0,0-3.1-3.4-5.1-5.3
	c-1.1-1-2.9-0.4-2.9-0.4l-2.7,0.7L37.2,53.7L37.2,53.7z M62.2,47.8c3-0.3,4.9-1.3,6-2.3c1-0.9,1.3-2.2,1.3-3v-5.6l-7.7,1.5V40
	c0,1.1,0.6,1.7,1.9,1.4c0.4-0.1,1-0.3,1-0.3v1.3c0,0,0.1,0.7-1.9,1.1c-2.6,0.4-3.7-1.1-3.7-3.5c0.1-2.6,1.8-4.1,3.8-4.6
	c2.3-0.4,3.6,0,4.3,0.1c2.6,0.4,3.3-3.1,1-3.9c-1.7-0.6-3.9-0.7-6.1-0.4c-2.9,0.5-8.4,2.6-8.4,9.5C53.6,46.4,58.2,48.2,62.2,47.8
	L62.2,47.8z"/>
<path class="st2" d="M64,48.1c-0.2-0.2-0.6-0.2-1-0.1c-10.1,2.4-27,7.6-36.8,11.9c-0.4,0.2-0.6,0.3-0.8,0.6c-0.2,0.5,0.3,1,0.3,1
	c2,2.6,10.8,5.8,20.4,3.4c14.7-3.6,17.7-14.2,18.1-15.7C64.2,48.9,64.3,48.4,64,48.1 M60.7,52.2c-2.3,5-6.5,8.4-10.8,10.1
	c4.9-2.9,7.7-7,9-10.6C59.4,50.1,61.4,50.9,60.7,52.2 M57.6,12c0,0-2.7-4.7-12.3-5.8c-5.1-0.6-12.1,0.5-17,3.2
	c-8.8,4.9-10.2,12.9-10.2,12.9c-0.1,0.1-0.1,0.7,0.1,1s0.5,0.3,0.9,0.1c3.1-1.1,12.5-4.3,18.4-5.8c8.4-2.3,15.2-3.7,19.6-4.4
	c0.3-0.1,0.6-0.2,0.7-0.5C58,12.4,57.6,12,57.6,12 M22.4,19.9c-0.1,1-1.4,0.9-1.3-0.1c0.2-2.4,3.8-8.2,9.2-10.7
	C27,11.4,23.5,15.6,22.4,19.9 M48.1,13.5c1.2-0.3,2-1.2,2-2.2c0-1.6-3.5-3.9-9.3-4.3c5.7-0.5,11.8,2.1,11.8,4.3
	C52.6,12.6,50.9,12.7,48.1,13.5"/>
<path class="st3" d="M71.3,49.8h0.4c0.2,0,0.4,0,0.4,0.3s-0.2,0.3-0.4,0.3h-0.4V49.8C71.4,49.8,71.3,49.8,71.3,49.8z M70.8,51.5h0.4
	v-0.9h0.3l0.4,0.9h0.4l-0.5-0.9c0.3,0,0.5-0.2,0.5-0.5c0-0.4-0.3-0.6-0.8-0.6h-0.7L70.8,51.5L70.8,51.5z M70.2,50.5
	c0-0.8,0.6-1.4,1.4-1.4s1.4,0.6,1.4,1.4c0,0.8-0.6,1.4-1.4,1.4S70.2,51.3,70.2,50.5z M69.9,50.5c0,1,0.8,1.7,1.7,1.7
	c0.9,0,1.7-0.7,1.7-1.7s-0.8-1.7-1.7-1.7C70.7,48.9,69.9,49.6,69.9,50.5z"/>
<text transform="matrix(0.9791 -0.1209 0.1225 0.9925 14.8913 38.1313)" class="st5 st6 st7">KFET</text>
<g>
	<path class="st8" d="M24.5,31.3l3.8,3.4c0.6,0.5,0.8,1,0.8,1.6s-0.3,1.2-0.9,1.8c-0.5,0.6-1.1,1-1.8,1.1c-0.7,0.1-1.2-0.1-1.8-0.7
		l-4.6-4v4.1c0,1.4-0.8,2.4-2.4,2.8L15.2,42V25.4l4.8-1.3v6.3l4.7-6.5c0.6-0.8,1.2-1.4,1.8-1.7c0.7-0.3,1.2-0.2,1.8,0.1
		c0.5,0.4,0.8,0.8,0.9,1.4c0,0.6-0.2,1.3-0.8,2.1L24.5,31.3z"/>
	<path class="st8" d="M32.6,37.5c-1.6,0.4-2.4-0.1-2.4-1.5l0.2-14.7l10.2-2.8v2c0,1.3-0.7,2.2-1.9,2.5l-3.5,0.9v2.4L40,25v2
		c0,1.3-0.7,2.2-1.9,2.5l-3,0.8L35,34.6C35,36.1,34.2,37.1,32.6,37.5z"/>
	<path class="st8" d="M41.6,35.1l0.3-16.9l10.2-2.8v2c0,1.3-0.7,2.2-1.9,2.5l-3.5,0.9l-0.1,2.6l4.9-1.3v2c0,1.3-0.7,2.2-1.9,2.5
		l-3,0.8l-0.1,2.5l5.3-1.4v2c0,1.3-0.7,2.1-1.9,2.5L41.6,35.1z"/>
	<path class="st8" d="M62.3,16.7L62,27.5c0,1.4-0.9,2.4-2.5,2.8l-2.4,0.6L57.4,18L55,18.7c-1.3,0.4-1.9-0.1-1.9-1.5v-2L64.9,12
		c1.3-0.4,2,0.1,1.9,1.5c0,1.3-0.7,2.2-2,2.5L62.3,16.7z"/>
</g>
</svg>
